# xmcd
#
# Track frame offsets:
#	150
#	13438
#	27316
#	38530
#	54931
#	64689
#	74092
#	86240
#	98412
#	108133
#	119488
#	126953
#	136240
#	146652
#	155173
#	166253
#	176736
#	186247
#	201006
#	211204
#	225190
#	236239
#	248581
#	258235
#	267630
#	279457
#	291438
#	303025
#	310000
#	320432
#
# Disc length: 4431 seconds
#
# Revision: 0
# Processed by: cddbd v1.5.1PL0 Copyright (c) Steve Scherf et al.
# Submitted via: dBpowerAMP V4.0
#
DISCID=b4114d1e
DTITLE=Augustin Ramirez - 30 Grandes Exitos - 30 Grandes Exitos
DYEAR=1900
DGENRE=Tejano
TTITLE0=Que Chulita Estas
TTITLE1=Mirada Que Fascina
TTITLE2=Mi Golondrina
TTITLE3=Tres Ramitas
TTITLE4=Todos Lloramos
TTITLE5=El Mazo
TTITLE6=Tu Tienes Que Vivir Conmigo
TTITLE7=Damelo
TTITLE8=Corazon Malo
TTITLE9=Los Dos Silencitos
TTITLE10=Terroncito De Azucar
TTITLE11=Senor Cartero
TTITLE12=Este Borrachito
TTITLE13=Cansado De Llorar
TTITLE14=Me Equivoque
TTITLE15=El Camaroncito
TTITLE16=Falsa Mi Amor
TTITLE17=Paloma Dejame Ir
TTITLE18=Dulce Amor
TTITLE19=La Apasionada
TTITLE20=Quiero Mas
TTITLE21=Dame Tu Amor
TTITLE22=Te Voy A Llevar
TTITLE23=La Ruleta
TTITLE24=Con Carino
TTITLE25=Amor Para Ti
TTITLE26=Si Me Acompanas
TTITLE27=Mujer Casada
TTITLE28=Necesito Tu Amor
TTITLE29=Agamos Un Trato
EXTD=Artist - Augustin Ramirez\nAlbum 30 Grandes Exitos\nGenre - Tejano
EXTT0=
EXTT1=
EXTT2=
EXTT3=
EXTT4=
EXTT5=
EXTT6=
EXTT7=
EXTT8=
EXTT9=
EXTT10=
EXTT11=
EXTT12=
EXTT13=
EXTT14=
EXTT15=
EXTT16=
EXTT17=
EXTT18=
EXTT19=
EXTT20=
EXTT21=
EXTT22=
EXTT23=
EXTT24=
EXTT25=
EXTT26=
EXTT27=
EXTT28=
EXTT29=
PLAYORDER=
